<?xml version="1.0" encoding="UTF-8"?>
<svg width="256" height="256" viewBox="0 0 256 256" xmlns="http://www.w3.org/2000/svg">
  <defs>
    <linearGradient id="coin" x1="0" y1="0" x2="0" y2="1">
      <stop offset="0%" stop-color="#FFEE58"/>
      <stop offset="100%" stop-color="#FBC02D"/>
    </linearGradient>
    <linearGradient id="bee" x1="0" y1="0" x2="1" y2="1">
      <stop offset="0%" stop-color="#FFD54F"/>
      <stop offset="100%" stop-color="#FFA000"/>
    </linearGradient>
  </defs>
  <g fill="none" fill-rule="evenodd">
    <rect x="0" y="0" width="256" height="256" fill="transparent"/>
    <g transform="translate(16,16)">
      <circle cx="112" cy="176" r="56" fill="url(#coin)" stroke="#E0A800" stroke-width="6"/>
      <path d="M64,90 C64,66 84,48 108,48 h8 c24,0 44,18 44,42 v12 c0,26 -28,46 -52,46 h-8 c-24,0 -36,-14 -36,-32 z" fill="url(#bee)" stroke="#212121" stroke-width="6"/>
      <rect x="84" y="92" width="64" height="12" rx="6" fill="#212121"/>
      <rect x="84" y="116" width="64" height="12" rx="6" fill="#212121"/>
      <g transform="translate(52,64)" stroke="#212121" stroke-width="5" fill="#FFFFFF" opacity="0.9">
        <path d="M0,28 C24,6 56,6 80,28 C56,40 24,40 0,28 Z"/>
        <path d="M96,28 C120,6 152,6 176,28 C152,40 120,40 96,28 Z"/>
      </g>
      <g transform="translate(88,24)" stroke="#212121" stroke-width="6" stroke-linecap="round">
        <path d="M0,8 C10,-6 18,-6 26,8"/>
        <path d="M36,8 C46,-6 54,-6 62,8"/>
      </g>
      <g transform="translate(72,160)" fill="#212121">
        <circle cx="40" cy="16" r="6"/>
        <rect x="22" y="26" width="36" height="10" rx="5"/>
      </g>
    </g>
  </g>
</svg>
