<?xml version="1.0" encoding="UTF-8"?>
<svg width="256" height="256" viewBox="0 0 256 256" xmlns="http://www.w3.org/2000/svg">
  <defs>
    <linearGradient id="gold" x1="0" y1="0" x2="1" y2="1">
      <stop offset="0%" stop-color="#FDD835"/>
      <stop offset="100%" stop-color="#F9A825"/>
    </linearGradient>
  </defs>
  <g fill="none" fill-rule="evenodd">
    <rect x="0" y="0" width="256" height="256" fill="transparent"/>
    <g transform="translate(24,32)">
      <path d="M40,52 l24,-10 24,10 -24,10 z" fill="#1F1F1F"/>
      <rect x="34" y="46" width="60" height="12" rx="6" fill="#1F1F1F"/>
      <ellipse cx="120" cy="112" rx="62" ry="42" fill="url(#gold)" stroke="#000" stroke-width="6"/>
      <rect x="72" y="92" width="96" height="12" rx="6" fill="#000"/>
      <rect x="72" y="116" width="96" height="12" rx="6" fill="#000"/>
      <path d="M92,48 C102,24 138,24 148,48" stroke="#000" stroke-width="6" stroke-linecap="round"/>
      <g transform="translate(86,68)">
        <rect x="0" y="0" width="68" height="36" rx="18" fill="#000"/>
        <rect x="8" y="10" width="52" height="16" rx="8" fill="#212121"/>
      </g>
      <g transform="translate(36,132)">
        <path d="M0,12 C24,-6 56,-6 80,12 C56,26 24,26 0,12 Z" fill="#E0F7FA" stroke="#000" stroke-width="4"/>
        <path d="M108,12 C132,-6 164,-6 188,12 C164,26 132,26 108,12 Z" fill="#E0F7FA" stroke="#000" stroke-width="4"/>
      </g>
    </g>
  </g>
</svg>
